Coordinates
version=1
nRows=31
nColumns=38
inDegrees=no

Units are S.I. units (second, meters, Newtons, ...)
If the header above contains a line with 'inDegrees', this indicates whether rotational values are in degrees (yes) or radians (no).

endheader
time	pelvis_tilt	pelvis_list	pelvis_rotation	pelvis_tx	pelvis_ty	pelvis_tz	hip_flexion_r	hip_adduction_r	hip_rotation_r	knee_angle_r	ankle_angle_r	subtalar_angle_r	mtp_angle_r	hip_flexion_l	hip_adduction_l	hip_rotation_l	knee_angle_l	ankle_angle_l	subtalar_angle_l	mtp_angle_l	lumbar_extension	lumbar_bending	lumbar_rotation	arm_flex_r	arm_add_r	arm_rot_r	elbow_flex_r	pro_sup_r	wrist_flex_r	wrist_dev_r	arm_flex_l	arm_add_l	arm_rot_l	elbow_flex_l	pro_sup_l	wrist_flex_l	wrist_dev_l
1.74	2.84368	1.43588	-1.27972	0.787095	1.08928	0.939905	0.212521	0.0260562	-0.221253	0.0106161	-0.0178953	0	0	-0.378146	0.0373796	-0.272384	0.0796068	0.205348	0	0	-0.276411	0.0465931	0.0848958	0.144431	-0.315171	0.95071	0.352785	0.751783	0	0	0.111173	-0.184449	0.177251	0.349122	1.5708	0	0
1.75	2.8431	1.43281	-1.27337	0.787125	1.09938	0.939079	0.212833	0.026747	-0.235328	0.0410706	-0.017545	0	0	-0.386353	0.0317748	-0.272386	0.0917721	0.211325	0	0	-0.278038	0.0514876	0.0785433	0.142748	-0.315992	0.952227	0.353709	0.75015	0	0	0.106998	-0.183147	0.173364	0.350461	1.5708	0	0
1.76	2.84065	1.4298	-1.2642	0.787131	1.10975	0.938347	0.211144	0.0276439	-0.248309	0.0655024	-0.0141091	0	0	-0.393743	0.0252611	-0.272124	0.105371	0.216498	0	0	-0.278811	0.0569484	0.0710721	0.14049	-0.316481	0.952287	0.35427	0.749421	0	0	0.101735	-0.181884	0.167405	0.353061	1.5708	0	0
1.77	2.82958	1.42687	-1.24666	0.787304	1.12032	0.937757	0.205592	0.0314184	-0.254295	0.0768437	-0.0183395	0	0	-0.399727	0.0169173	-0.273545	0.121029	0.220894	0	0	-0.278743	0.0635562	0.0640345	0.137777	-0.316732	0.951931	0.354342	0.750024	0	0	0.0958542	-0.1805	0.159749	0.355584	1.5708	0	0
1.78	2.81241	1.42446	-1.2239	0.78771	1.13105	0.937208	0.197688	0.0371754	-0.252544	0.0786387	-0.0382012	0	0	-0.403929	0.0073305	-0.276668	0.13885	0.224833	0	0	-0.277556	0.0706181	0.0581346	0.134618	-0.317119	0.951413	0.354688	0.751263	0	0	0.0896513	-0.179093	0.150883	0.35732	1.5708	0	0
1.79	2.79245	1.42221	-1.19838	0.788284	1.14186	0.936747	0.189663	0.0429054	-0.250751	0.0792448	-0.0696265	0	0	-0.406051	-0.00355783	-0.280875	0.159796	0.228374	0	0	-0.275932	0.0779295	0.0525127	0.131261	-0.317473	0.951253	0.355191	0.753022	0	0	0.0835267	-0.177825	0.141323	0.359274	1.5708	0	0
1.8	2.76997	1.42046	-1.17074	0.789084	1.15273	0.936376	0.183883	0.0477543	-0.252545	0.0842614	-0.0981662	0	0	-0.405661	-0.0155245	-0.285329	0.18386	0.230665	0	0	-0.273469	0.0851361	0.0473372	0.12781	-0.317654	0.951042	0.355783	0.754527	0	0	0.0769338	-0.176861	0.131309	0.362541	1.5708	0	0
1.81	2.74215	1.41895	-1.13815	0.790029	1.16374	0.936151	0.180793	0.0519423	-0.257951	0.0956076	-0.114645	0	0	-0.402567	-0.0292382	-0.290858	0.211623	0.231486	0	0	-0.270005	0.0929345	0.0425728	0.1241	-0.317861	0.951904	0.356244	0.756039	0	0	0.069891	-0.175879	0.121242	0.366426	1.5708	0	0
1.82	2.70841	1.41667	-1.10179	0.791151	1.17474	0.93616	0.180065	0.0562887	-0.263861	0.113913	-0.121514	0	0	-0.397584	-0.0442991	-0.298286	0.243268	0.230222	0	0	-0.26704	0.101708	0.0400821	0.120648	-0.318858	0.953279	0.357093	0.757134	0	0	0.0634802	-0.174223	0.111115	0.368758	1.5708	0	0
1.83	2.67135	1.413	-1.06319	0.792332	1.18558	0.936557	0.179886	0.0612178	-0.26898	0.136201	-0.121556	0	0	-0.390566	-0.0612264	-0.305094	0.279821	0.225879	0	0	-0.265628	0.11165	0.0389668	0.117803	-0.320354	0.954053	0.358316	0.757604	0	0	0.0584295	-0.171938	0.100922	0.369243	1.5708	0	0
1.84	2.63424	1.40823	-1.02549	0.793611	1.19632	0.937406	0.178596	0.0670312	-0.27199	0.158765	-0.115581	0	0	-0.381594	-0.0795649	-0.310924	0.320645	0.216856	0	0	-0.265482	0.122094	0.039244	0.115308	-0.321771	0.955156	0.35929	0.758015	0	0	0.0542762	-0.169409	0.090971	0.369565	1.5708	0	0
1.85	2.59557	1.40381	-0.987988	0.795153	1.20705	0.938528	0.176699	0.0740123	-0.27373	0.1791	-0.10684	0	0	-0.368429	-0.0990857	-0.317483	0.366966	0.201835	0	0	-0.264713	0.132124	0.0413944	0.112875	-0.322793	0.956367	0.359889	0.757957	0	0	0.0503093	-0.166812	0.08167	0.37038	1.5708	0	0
1.86	2.55674	1.39984	-0.952087	0.79703	1.21779	0.939775	0.173253	0.0823661	-0.275466	0.195026	-0.0984007	0	0	-0.350932	-0.119659	-0.323896	0.418568	0.179185	0	0	-0.263115	0.141206	0.0453756	0.110461	-0.323465	0.958442	0.360127	0.757555	0	0	0.0461181	-0.164676	0.0736445	0.372525	1.5708	0	0
1.87	2.51967	1.39745	-0.919139	0.799169	1.22848	0.940969	0.168603	0.0912186	-0.276775	0.205484	-0.090961	0	0	-0.327752	-0.140411	-0.328684	0.475588	0.148648	0	0	-0.259883	0.148314	0.0504271	0.107996	-0.323456	0.961408	0.360098	0.756478	0	0	0.041777	-0.163621	0.0676132	0.375696	1.5708	0	0
1.88	2.47854	1.39778	-0.882706	0.8015	1.23912	0.941871	0.164122	0.100528	-0.276619	0.210059	-0.0848952	0	0	-0.297263	-0.161332	-0.330673	0.537715	0.109929	0	0	-0.25327	0.153506	0.055758	0.10521	-0.323019	0.966554	0.360156	0.753196	0	0	0.0365826	-0.163879	0.0632359	0.380519	1.5708	0	0
1.89	2.43726	1.39979	-0.846226	0.803885	1.24972	0.942538	0.158419	0.109979	-0.274146	0.209054	-0.0805767	0	0	-0.262192	-0.180783	-0.327463	0.601796	0.0623869	0	0	-0.24458	0.156903	0.0611123	0.101918	-0.322927	0.973792	0.36137	0.744825	0	0	0.0312934	-0.165814	0.064198	0.385668	1.5708	0	0
1.9	2.39448	1.40224	-0.807782	0.806219	1.26025	0.943	0.151937	0.119585	-0.270763	0.20536	-0.0772469	0	0	-0.224103	-0.199521	-0.319693	0.666425	0.00636006	0	0	-0.234772	0.159826	0.0661389	0.098097	-0.322966	0.979315	0.362978	0.736176	0	0	0.0266971	-0.168734	0.0685442	0.389914	1.5708	0	0
1.91	2.35333	1.40409	-0.770548	0.808413	1.27064	0.943372	0.144175	0.128833	-0.266646	0.200325	-0.0749157	0	0	-0.185166	-0.217267	-0.308687	0.72964	-0.0553049	0	0	-0.225422	0.162726	0.0709939	0.0940411	-0.323602	0.984504	0.365348	0.727944	0	0	0.0224007	-0.17181	0.0733287	0.394989	1.5708	0	0
1.92	2.31739	1.40496	-0.738108	0.810401	1.28076	0.943762	0.135614	0.137016	-0.261362	0.196032	-0.0710633	0	0	-0.146234	-0.233654	-0.295311	0.791048	-0.120563	0	0	-0.217848	0.165575	0.0756103	0.0903484	-0.325163	0.988645	0.368724	0.722463	0	0	0.0186777	-0.174662	0.0773639	0.400724	1.5708	0	0
1.93	2.29337	1.40477	-0.717095	0.812197	1.29057	0.944342	0.126119	0.143332	-0.255347	0.194095	-0.0646223	0	0	-0.108327	-0.247917	-0.279865	0.850828	-0.186113	0	0	-0.213296	0.167759	0.0801435	0.0872428	-0.326764	0.988982	0.37204	0.719832	0	0	0.0167417	-0.177066	0.0792993	0.404367	1.5708	0	0
1.94	2.27864	1.40401	-0.704658	0.813736	1.30007	0.945094	0.116437	0.147706	-0.249323	0.194619	-0.0569586	0	0	-0.0707669	-0.259904	-0.262502	0.908934	-0.24873	0	0	-0.211093	0.169455	0.0843192	0.0848425	-0.328628	0.988169	0.375715	0.717784	0	0	0.0155539	-0.179236	0.0807265	0.408293	1.5708	0	0
1.95	2.27885	1.40242	-0.706508	0.815055	1.30934	0.946158	0.104266	0.150297	-0.242672	0.195356	-0.0498082	0	0	-0.0366254	-0.268993	-0.245778	0.962199	-0.292991	0	0	-0.212069	0.17002	0.0882137	0.0832768	-0.330401	0.98682	0.379492	0.714638	0	0	0.0144855	-0.181721	0.0823406	0.414366	1.5708	0	0
1.96	2.29318	1.40022	-0.72203	0.816274	1.31847	0.94749	0.088889	0.151758	-0.234741	0.194456	-0.0435627	0	0	-0.00642854	-0.275218	-0.230921	1.00953	-0.313038	0	0	-0.215626	0.169195	0.0918833	0.082405	-0.331566	0.985703	0.382621	0.710965	0	0	0.0133297	-0.184686	0.0842751	0.42221	1.5708	0	0
1.97	2.31785	1.39809	-0.748647	0.817475	1.32739	0.948988	0.0709886	0.152394	-0.224455	0.190833	-0.0388892	0	0	0.0208416	-0.278547	-0.218712	1.05132	-0.317667	0	0	-0.220956	0.166668	0.0962088	0.0824909	-0.3327	0.987748	0.385663	0.704531	0	0	0.0110911	-0.188743	0.0896961	0.434469	1.5708	0	0
1.98	2.34767	1.39687	-0.780977	0.818633	1.33609	0.950536	0.052439	0.151957	-0.213695	0.185421	-0.0353425	0	0	0.0480723	-0.27918	-0.207267	1.0905	-0.3061	0	0	-0.226533	0.16248	0.101155	0.0831033	-0.332843	0.991215	0.386599	0.699408	0	0	0.011023	-0.191245	0.0923661	0.442424	1.5708	0	0
1.99	2.38226	1.39618	-0.816095	0.819629	1.34479	0.952115	0.0322849	0.150757	-0.205753	0.176991	-0.0332362	0	0	0.0762974	-0.277564	-0.19307	1.12853	-0.279618	0	0	-0.23167	0.157231	0.103786	0.0838901	-0.331026	0.994959	0.385047	0.694347	0	0	0.0113052	-0.193602	0.0942527	0.448484	1.5708	0	0
2	2.42095	1.39577	-0.857119	0.820753	1.35328	0.953734	0.011767	0.148984	-0.196331	0.167724	-0.0325924	0	0	0.103148	-0.273754	-0.180136	1.16214	-0.246822	0	0	-0.237668	0.150736	0.108035	0.0852396	-0.328526	0.997474	0.382689	0.68935	0	0	0.0128979	-0.195177	0.0959002	0.451917	1.5708	0	0
2.01	2.45864	1.39582	-0.897014	0.821852	1.36166	0.955244	-0.00867991	0.146931	-0.186722	0.156941	-0.0329797	0	0	0.129249	-0.268923	-0.168941	1.18926	-0.213792	0	0	-0.243072	0.143968	0.112244	0.0865139	-0.325042	0.998793	0.378745	0.686087	0	0	0.0152989	-0.196116	0.0983733	0.453921	1.5708	0	0
2.02	2.49638	1.39637	-0.936227	0.822701	1.36998	0.956621	-0.0286499	0.143886	-0.178677	0.145675	-0.0330826	0	0	0.154756	-0.262152	-0.158609	1.20995	-0.186702	0	0	-0.24768	0.137284	0.115977	0.0874498	-0.321363	0.998551	0.373918	0.683597	0	0	0.0192744	-0.19593	0.101504	0.452377	1.5708	0	0
2.03	2.53401	1.39723	-0.975391	0.823446	1.37824	0.957867	-0.0478871	0.140054	-0.171472	0.134555	-0.0329678	0	0	0.179399	-0.254166	-0.149597	1.22493	-0.165386	0	0	-0.251678	0.13055	0.120171	0.0881183	-0.318031	0.998742	0.369331	0.681652	0	0	0.0251587	-0.194897	0.105347	0.447258	1.5708	0	0
2.04	2.56895	1.39846	-1.01266	0.824145	1.38636	0.95897	-0.0658128	0.135773	-0.164327	0.123822	-0.0322861	0	0	0.203329	-0.245788	-0.14243	1.23461	-0.147934	0	0	-0.255068	0.12409	0.125614	0.088967	-0.315379	0.999176	0.365028	0.67928	0	0	0.0330597	-0.192997	0.109802	0.438867	1.5708	0	0
